<svg width="9" height="8" viewBox="0 0 9 8" fill="none" xmlns="http://www.w3.org/2000/svg">
<path d="M1.10535 4.50001H6.69035L4.25035 6.94001C4.05535 7.13501 4.05535 7.45501 4.25035 7.65001C4.44535 7.84501 4.76035 7.84501 4.95535 7.65001L8.25035 4.35501C8.44535 4.16001 8.44535 3.84501 8.25035 3.65001L4.96035 0.350009C4.86693 0.256382 4.74011 0.203766 4.60785 0.203766C4.47559 0.203766 4.34876 0.256382 4.25535 0.350009C4.06035 0.545009 4.06035 0.860009 4.25535 1.05501L6.69035 3.50001H1.10535C0.830347 3.50001 0.605347 3.72501 0.605347 4.00001C0.605347 4.27501 0.830347 4.50001 1.10535 4.50001Z" fill="#0B5FFF"/>
</svg>
